<svg viewBox="0 0 132 115" fill="none" xmlns="http://www.w3.org/2000/svg">
<path fill-rule="evenodd" clip-rule="evenodd" d="M103.273 32.3636L102.545 52.3636H111.273L110.545 32.3636L127.455 43.0909L131.818 35.4545L114 26.1818L131.818 16.9091L127.455 9.27273L110.545 20L111.273 0H102.545L103.273 20L86.3636 9.27273L82 16.9091L99.8182 26.1818L94 29L82 35.4545L82.0198 35.4891L81.9996 35.5L95.6349 73.4853L95.1866 73.7728L66.3478 46.9589L55.4369 53.9559L67.89 91.5309L67.4715 91.7993L37.4999 65.0003L37.5 65L26.6183 62.0479L27.7473 57.8344C28.2988 55.7763 29.1903 54.324 30.422 53.4776C31.6827 52.6144 33.4679 52.4923 35.7775 53.1111C36.7608 53.3746 37.6281 53.7051 38.3795 54.1025C39.1369 54.477 39.7572 54.8148 40.2403 55.1158L45.2834 46.1731C44.5566 45.6843 43.4045 45.0447 41.827 44.2544C40.2496 43.4641 38.3861 42.7809 36.2366 42.2049C33.1952 41.39 30.272 41.2317 27.4669 41.7301C24.6619 42.2285 22.2006 43.4562 20.0831 45.4133C17.9884 47.3765 16.4662 50.1303 15.5165 53.6748L14.1773 58.6727L6.3974 56.5621L3.82392 66.1665L11.6103 68.2529L0.0664062 111.335L12.5178 114.672L24.0617 71.5892L28.9449 72.8976L70.0849 109.36L81.3843 102.114L70.0952 65.5645L70.7229 65.1619L99.2303 90.6696L110.5 83.4426L96.3529 36.7536L103.273 32.3636Z" fill="black"/>
</svg>
