<svg viewBox="0 0 132 115" fill="none" xmlns="http://www.w3.org/2000/svg">
<path fill-rule="evenodd" clip-rule="evenodd" d="M103.206 32.3636L102.479 52.3636H111.206L110.479 32.3636L127.388 43.0909L131.752 35.4545L113.934 26.1818L131.752 16.9091L127.388 9.27273L110.479 20L111.206 0H102.479L103.206 20L86.2972 9.27273L81.9336 16.9091L99.7518 26.1818L93.9336 29L81.9336 35.4545L81.9533 35.4891L81.9332 35.5L95.5685 73.4853L95.1201 73.7728L66.2814 46.9589L55.3705 53.9559L67.8235 91.5309L67.405 91.7993L37.4335 65.0003L37.4336 65L26.5519 62.0479L27.6809 57.8344C28.2324 55.7763 29.1239 54.324 30.3556 53.4776C31.6163 52.6144 33.4014 52.4923 35.7111 53.1111C36.6944 53.3746 37.5617 53.7051 38.313 54.1025C39.0705 54.477 39.6908 54.8148 40.1739 55.1158L45.217 46.1731C44.4902 45.6843 43.3381 45.0447 41.7606 44.2544C40.1832 43.4641 38.3197 42.7809 36.1702 42.2049C33.1288 41.39 30.2056 41.2317 27.4005 41.7301C24.5955 42.2285 22.1342 43.4562 20.0167 45.4133C17.922 47.3765 16.3998 50.1303 15.4501 53.6748L14.1109 58.6727L6.331 56.5621L3.75751 66.1665L11.5439 68.2529L0 111.335L12.4514 114.672L23.9953 71.5892L28.8784 72.8976L70.0185 109.36L81.3179 102.114L70.0287 65.5645L70.6565 65.1619L99.1639 90.6696L110.433 83.4426L96.2865 36.7536L103.206 32.3636Z" fill="#F15A22"/>
</svg>
